<svg xmlns="http://www.w3.org/2000/svg" width="153.743" height="43.725" viewBox="0 0 153.743 43.725">
  <g id="Group_130" data-name="Group 130" transform="translate(-1198.459 -381.212)">
    <g id="Group_117" data-name="Group 117">
      <path id="Path_261" data-name="Path 261" d="M1328.881,381.212c.014.014.024.035.04.04a.677.677,0,0,1,.455.56,3.045,3.045,0,0,1,.077.547q.036.975.051,1.952a8.229,8.229,0,0,1-.1,1.479,2.582,2.582,0,0,1-.874,1.6,7.31,7.31,0,0,1-.811.614c-.682.428-1.374.841-2.07,1.247q-2.643,1.533-5.293,3.061a7.338,7.338,0,0,0-1.233.874,5.452,5.452,0,0,0-1.787,3.221,6.876,6.876,0,0,0-.107,1.224V407.6a7.28,7.28,0,0,0,.21,1.847,5.457,5.457,0,0,0,1.861,2.887,6.742,6.742,0,0,0,.932.649l8.846,5.118a6.314,6.314,0,0,0,1.924.731,5.286,5.286,0,0,0,3.109-.33,6.519,6.519,0,0,0,.783-.383q4.491-2.592,8.972-5.192a5.886,5.886,0,0,0,1.852-1.659,5.669,5.669,0,0,0,1.005-2.578,7.872,7.872,0,0,0,.079-1.074q.021-3.858.019-7.719c0-.544-.024-1.088-.026-1.631a3.3,3.3,0,0,1,.051-.579,1.017,1.017,0,0,1,.867-.9,2.644,2.644,0,0,1,.525-.056c.864,0,1.726.007,2.592.019a5.943,5.943,0,0,1,.638.049,1.259,1.259,0,0,1,.283.063.541.541,0,0,1,.4.381c0,.026.033.045.051.068v13.466c-.019.093-.045.187-.059.282a2.544,2.544,0,0,1-.023.261,7.279,7.279,0,0,1-2.014,3.99,8.957,8.957,0,0,1-1.819,1.4q-5.149,3.053-10.347,6.015c-.624.35-1.25.708-1.873,1.065a8.48,8.48,0,0,1-3.137,1.1.638.638,0,0,0-.135.049h-1.57a.667.667,0,0,0-.136-.049,8.266,8.266,0,0,1-3.108-1.093c-1.542-.883-3.09-1.749-4.627-2.646q-3.794-2.2-7.572-4.419a8.839,8.839,0,0,1-1.971-1.534,6.9,6.9,0,0,1-1.878-3.926,9.858,9.858,0,0,1-.08-1.656c.021-.612.026-1.224.026-1.836,0-1.885-.009-3.768-.01-5.653v-6.12c0-.292-.014-.582-.019-.874a7.6,7.6,0,0,1,.289-2.333,6.207,6.207,0,0,1,1.812-2.87,7.733,7.733,0,0,1,1.313-.964l6.96-4.081q2.763-1.612,5.542-3.208a3.3,3.3,0,0,1,.93-.407.368.368,0,0,0,.075-.042Z" fill="#c04"/>
      <g id="Group_116" data-name="Group 116">
        <path id="Path_262" data-name="Path 262" d="M1279.6,413.1a1.811,1.811,0,0,0-2.278,1.171h0a.562.562,0,0,1-.108.264,1.977,1.977,0,0,0-.715-1.17,1.753,1.753,0,0,0-1.315-.35,1.81,1.81,0,0,0-.094,3.58,1.79,1.79,0,0,0,1.284-.255,2.045,2.045,0,0,0,.864-1.222,1.863,1.863,0,0,0,.086.259,1.811,1.811,0,1,0,2.278-2.277Z" fill="#c04"/>
        <path id="Path_263" data-name="Path 263" d="M1295.437,392.127a1.808,1.808,0,1,0-1.808-1.808h0A1.809,1.809,0,0,0,1295.437,392.127Z" fill="#c04"/>
        <path id="Path_266" data-name="Path 266" d="M1302.452,401.157a7.273,7.273,0,0,0-14.029,3.84,7.654,7.654,0,0,0,.571,1.46c.037.068.107.14.08.243a.292.292,0,0,1-.1.04,11.887,11.887,0,0,1-1.252-.024,3.65,3.65,0,0,1-3.118-2.681,4.129,4.129,0,0,1-.124-1.067v-1.732a3.152,3.152,0,0,0-.024-.435,1.808,1.808,0,0,0-3.552-.129,2.189,2.189,0,0,0-.049.491v1.817a4.88,4.88,0,0,1-.054.724,3.632,3.632,0,0,1-4.01,3.006,3.57,3.57,0,0,1-2.88-2.056,3.681,3.681,0,0,1-.35-1.6v-1.876a2.935,2.935,0,0,0-.01-.35,1.813,1.813,0,0,0-3.524-.332,1.924,1.924,0,0,0-.082.631v1.729c0,.2-.014.407-.033.61a3.635,3.635,0,0,1-2.534,3.079,4.948,4.948,0,0,1-1.436.2h-2c-2.436,0-3.659,0-6.09-.012a4.871,4.871,0,0,1-1.38-.175,3.631,3.631,0,0,1-2.605-3.422v-.064c0-.925.014-1.109,0-2.042a1.728,1.728,0,0,0-1-1.593,1.808,1.808,0,0,0-2.623,1.574V403a7.289,7.289,0,0,0,6.12,7.255,8.948,8.948,0,0,0,1.507.119h1.906l.691-.009h4.9c.012,0,.024-.005.038-.005.493,0,.986,0,1.478-.047.238-.024.47-.045.7-.087a7.256,7.256,0,0,0,3.985-2.142c.049-.056.107-.108.175-.175.2.194.376.393.588.568s.428.36.657.525a7.336,7.336,0,0,0,.689.435,7.943,7.943,0,0,0,.733.35,7.219,7.219,0,0,0,.768.273,7.979,7.979,0,0,0,1.63.287,7.38,7.38,0,0,0,.815,0,7.094,7.094,0,0,0,.81-.094,7.848,7.848,0,0,0,.816-.192,7.144,7.144,0,0,0,.768-.271,7.928,7.928,0,0,0,.733-.35,7.334,7.334,0,0,0,.689-.434,7.927,7.927,0,0,0,.657-.525c.2-.178.39-.372.6-.577.094.1.18.2.269.289a7.148,7.148,0,0,0,5.152,2.163c2.448.01,4.9,0,7.344,0a7.1,7.1,0,0,0,1.53-.175c.122-.026.245-.058.367-.091a7.27,7.27,0,0,0,5.1-8.929Zm-7,5.566a3.649,3.649,0,0,1-3.658-3.637v-.049a3.648,3.648,0,1,1,3.658,3.681Z" fill="#c04"/>
        <path id="Path_267" data-name="Path 267" d="M1245.255,397.105a7.115,7.115,0,0,0-5.437-1.163,7.026,7.026,0,0,0-2.03.7c-.086.044-.171.08-.306.142l-.005-.418v-5.914a2.744,2.744,0,0,0-.014-.35,1.807,1.807,0,0,0-3.6.308v12.44a4.938,4.938,0,0,1-.066.874,3.648,3.648,0,0,1-7.159.1,4.786,4.786,0,0,1-.075-1.013V392.643a1.813,1.813,0,0,0-3.5-.617,1.979,1.979,0,0,0-.133.769v10.284a6.945,6.945,0,0,0,.185,1.618,7.279,7.279,0,0,0,12.327,3.43c.073-.073.129-.168.219-.2a.111.111,0,0,0,.047.017c.11.108.219.219.329.327a7.328,7.328,0,0,0,5.274,2.1,6.445,6.445,0,0,0,1.215-.131,7.259,7.259,0,0,0,5.771-8.38A7.024,7.024,0,0,0,1245.255,397.105Zm-.474,6v.049a3.686,3.686,0,1,1,0-.049Z" fill="#c04"/>
        <path id="Path_268" data-name="Path 268" d="M1240.545,392.1a2.364,2.364,0,0,0,.747.1h10.57a2.411,2.411,0,0,0,.35-.016,5.122,5.122,0,0,1,.8.021l1.139,0c.516,0,1.026.009,1.538,0a1.878,1.878,0,0,0,1.811-1.89,1.777,1.777,0,0,0-1.831-1.754h-3.524a1.737,1.737,0,0,0-.231,0,1.6,1.6,0,0,1-.4.017h-10.255a2.53,2.53,0,0,0-.491.042,1.808,1.808,0,0,0-.227,3.487Z" fill="#c04"/>
        <path id="Path_269" data-name="Path 269" d="M1259.587,401.2a1.765,1.765,0,0,0,1.238-.2,1.93,1.93,0,0,0,.922-1.346c.047.149.073.24.1.33a1.81,1.81,0,1,0,0-1.112.674.674,0,0,1-.119.282,1.859,1.859,0,0,0-.724-1.184,1.738,1.738,0,0,0-1.345-.337,1.81,1.81,0,0,0-.072,3.566Z" fill="#c04"/>
      </g>
    </g>
    <path id="Path_265" data-name="Path 265" d="M1219.188,399.435a1.724,1.724,0,0,0-1,1.593c-.014.934,0,1.117,0,2.042v.065a3.63,3.63,0,0,1-2.606,3.422,4.872,4.872,0,0,1-1.38.175q-1.3,0-2.6,0c-.867,0-4.674,0-5.534,0a4.872,4.872,0,0,1-1.38-.175,3.63,3.63,0,0,1-2.606-3.422v-.066c0-.925.014-1.109,0-2.042a1.725,1.725,0,0,0-1-1.593,1.809,1.809,0,0,0-2.623,1.574V403a7.289,7.289,0,0,0,6.12,7.255,8.95,8.95,0,0,0,1.507.119h8.1a8.947,8.947,0,0,0,1.507-.119,7.289,7.289,0,0,0,6.12-7.255v-1.99a1.808,1.808,0,0,0-2.621-1.573Z" fill="#c04"/>
    <path id="Path_264" data-name="Path 264" d="M1209.164,413.312a1.78,1.78,0,0,0-.75,1.072c-.024.1-.037.192-.129.25v.407c.035.03.084.052.1.091a2.1,2.1,0,0,1,.061.224,1.814,1.814,0,1,0,.719-2.044Z" fill="#c04"/>
  </g>
</svg>
